<?xml version="1.0" standalone="no"?><!DOCTYPE svg PUBLIC "-//W3C//DTD SVG 1.1//EN" "http://www.w3.org/Graphics/SVG/1.1/DTD/svg11.dtd"><svg t="1598443640081" class="icon" viewBox="0 0 1024 1024" version="1.1" xmlns="http://www.w3.org/2000/svg" p-id="828" xmlns:xlink="http://www.w3.org/1999/xlink" width="200" height="200"><defs><style type="text/css"></style></defs><path d="M512 956.04266667c-54.31466667 0-107.01866667-10.656-156.672-31.63733334a402.15893333 402.15893333 0 0 1-68.37333334-37.12 404.41386667 404.41386667 0 0 1-59.53066666-49.12000001 404.41386667 404.41386667 0 0 1-49.12-59.53066665 401.76533333 401.76533333 0 0 1-37.10933333-68.37333334c-20.992-49.65333333-31.648-102.35733333-31.64800001-156.672s10.656-107.01866667 31.64800001-156.672c10.08-23.86133333 22.57066667-46.85866667 37.10933333-68.37333333a404.41386667 404.41386667 0 0 1 49.12-59.53066667c15.712-15.72266668 41.19466668-15.72266668 56.91733333 0 15.712 15.712 15.712 41.19466668 0 56.91733334-29.58933334 29.57866667-52.80000001 64.01066667-69.02400001 102.34666666-16.768 39.68-25.28000001 81.824-25.27999999 125.312 0 43.47733333 8.51200001 85.64266667 25.27999999 125.312 16.224 38.32533333 39.43466667 72.76800001 69.02400001 102.34666666 29.57866667 29.58933334 64.01066667 52.80000001 102.34666667 69.02400001 39.68 16.768 81.83466667 25.28000001 125.312 25.28s85.64266667-8.51200001 125.312-25.28c38.32533333-16.224 72.76800001-39.43466667 102.34666667-69.02400001 29.58933334-29.57866667 52.80000001-64.01066667 69.02399999-102.34666666 16.768-39.68 25.28000001-81.83466667 25.28000001-125.312 0-43.488-8.51200001-85.64266667-25.28000001-125.312-16.224-38.32533333-39.43466667-72.76800001-69.02399999-102.35733333-15.712-15.712-15.712-41.19466668 0-56.90666667 15.72266668-15.72266668 41.19466668-15.72266668 56.91733333 0a404.41386667 404.41386667 0 0 1 49.12 59.53066667 402.51093333 402.51093333 0 0 1 37.10933333 68.37333333c20.992 49.65333333 31.648 102.35733333 31.64800001 156.672s-10.656 107.01866667-31.64800001 156.672a402.1056 402.1056 0 0 1-37.10933333 68.37333334 404.41386667 404.41386667 0 0 1-49.12 59.53066665 404.41386667 404.41386667 0 0 1-59.53066668 49.12000001 402.56426668 402.56426668 0 0 1-68.37333332 37.12c-49.65333333 20.992-102.35733333 31.63733334-156.672 31.63733334z m40.24533333-442.69866668v-402.45333332c0-22.22933333-18.016-40.24533333-40.24533333-40.24533334-22.22933333 0-40.24533333 18.016-40.24533333 40.24533334v402.45333332c0 22.22933333 18.016 40.24533333 40.24533333 40.24533334 22.22933333 0 40.24533333-18.016 40.24533333-40.24533334z" fill="#707070" p-id="829"></path></svg>