<?xml version="1.0" standalone="no"?><!DOCTYPE svg PUBLIC "-//W3C//DTD SVG 1.1//EN" "http://www.w3.org/Graphics/SVG/1.1/DTD/svg11.dtd"><svg t="1598348319584" class="icon" viewBox="0 0 1024 1024" version="1.1" xmlns="http://www.w3.org/2000/svg" p-id="11596" xmlns:xlink="http://www.w3.org/1999/xlink" width="200" height="200"><defs><style type="text/css"></style></defs><path d="M821.333333 85.333333A32 32 0 0 1 853.333333 117.333333v540.778667a64 64 0 0 1-16.832 43.242667l-198.570666 216.576a64 64 0 0 1-40.576 20.394666L597.333333 938.666667H202.666667A32 32 0 0 1 170.666667 906.666667v-789.333334A32 32 0 0 1 202.666667 85.333333h618.666666zM768 149.333333H256a21.333333 21.333333 0 0 0-21.184 18.837334L234.666667 170.666667v682.666666a21.333333 21.333333 0 0 0 18.837333 21.184L256 874.666667h277.333333v-202.666667a32 32 0 0 1 32-32H789.333333V170.666667a21.333333 21.333333 0 0 0-21.333333-21.333334z m-17.237333 554.666667H618.666667a21.333333 21.333333 0 0 0-21.184 18.837333L597.333333 725.333333l0.021334 147.477334a21.333333 21.333333 0 0 0 5.397333-3.434667l1.834667-1.834667L750.762667 704zM501.333333 533.333333a32 32 0 0 1 0 64h-149.333333a32 32 0 0 1 0-64h149.333333z m170.666667-149.333333a32 32 0 0 1 0 64h-320a32 32 0 0 1 0-64h320z m0-149.333333a32 32 0 0 1 0 64h-320a32 32 0 0 1 0-64h320z" fill="#ffffff" p-id="11597"></path></svg>